STARTFONT 2.1
COMMENT
COMMENT Converted from OpenType font "Oxanium-Bold.ttf" by "otf2bdf 3.0".
COMMENT
FONT -FreeType-Oxanium-Bold-R-Normal--15-150-72-72-P-71-ISO10646-1
SIZE 15 72 72
FONTBOUNDINGBOX 25 20 -7 -4
STARTPROPERTIES 19
FOUNDRY "FreeType"
FAMILY_NAME "Oxanium"
WEIGHT_NAME "Bold"
SLANT "R"
SETWIDTH_NAME "Normal"
ADD_STYLE_NAME ""
PIXEL_SIZE 15
POINT_SIZE 150
RESOLUTION_X 72
RESOLUTION_Y 72
SPACING "P"
AVERAGE_WIDTH 71
CHARSET_REGISTRY "ISO10646"
CHARSET_ENCODING "1"
FONT_ASCENT 11
FONT_DESCENT 3
COPYRIGHT "Copyright 2019 The Oxanium Project Authors (https://github.com/sevmeyer/oxanium)"
_OTF_FONTFILE "Oxanium-Bold.ttf"
_OTF_PSNAME "Oxanium-Bold"
ENDPROPERTIES
CHARS 357
STARTCHAR 0000
ENCODING 0
SWIDTH 0 0
DWIDTH 0 0
BBX 0 0 0 0
BITMAP
ENDCHAR
STARTCHAR 000D
ENCODING 13
SWIDTH 266 0
DWIDTH 4 0
BBX 0 0 0 0
BITMAP
ENDCHAR
STARTCHAR 0020
ENCODING 32
SWIDTH 266 0
DWIDTH 4 0
BBX 0 0 0 0
BITMAP
ENDCHAR
STARTCHAR 0021
ENCODING 33
SWIDTH 266 0
DWIDTH 4 0
BBX 2 11 1 0
BITMAP
C0
C0
C0
C0
C0
C0
C0
00
C0
C0
C0
ENDCHAR
STARTCHAR 0022
ENCODING 34
SWIDTH 466 0
DWIDTH 7 0
BBX 5 4 1 7
BITMAP
D8
D8
D8
D8
ENDCHAR
STARTCHAR 0023
ENCODING 35
SWIDTH 666 0
DWIDTH 10 0
BBX 8 11 1 0
BITMAP
66
66
66
FF
FF
66
FF
FF
66
66
66
ENDCHAR
STARTCHAR 0024
ENCODING 36
SWIDTH 600 0
DWIDTH 9 0
BBX 7 14 1 -2
BITMAP
30
30
7C
FE
C0
C0
FC
7E
06
06
FE
FC
30
30
ENDCHAR
STARTCHAR 0025
ENCODING 37
SWIDTH 866 0
DWIDTH 13 0
BBX 12 11 1 0
BITMAP
F100
B180
B300
B300
B6E0
B7B0
FDB0
0DB0
19B0
19B0
30E0
ENDCHAR
STARTCHAR 0026
ENCODING 38
SWIDTH 666 0
DWIDTH 10 0
BBX 9 11 1 0
BITMAP
7C00
FC00
C000
C000
7F80
7F80
C600
C600
C600
FE00
7E00
ENDCHAR
STARTCHAR 0027
ENCODING 39
SWIDTH 266 0
DWIDTH 4 0
BBX 2 4 1 7
BITMAP
C0
C0
C0
C0
ENDCHAR
STARTCHAR 0028
ENCODING 40
SWIDTH 333 0
DWIDTH 5 0
BBX 4 15 1 -3
BITMAP
20
70
60
60
C0
C0
C0
C0
C0
C0
C0
60
60
70
20
ENDCHAR
STARTCHAR 0029
ENCODING 41
SWIDTH 333 0
DWIDTH 5 0
BBX 4 15 0 -3
BITMAP
40
E0
60
70
30
30
30
30
30
30
30
70
60
E0
40
ENDCHAR
STARTCHAR 002A
ENCODING 42
SWIDTH 533 0
DWIDTH 8 0
BBX 6 6 1 5
BITMAP
30
B4
FC
70
78
C8
ENDCHAR
STARTCHAR 002B
ENCODING 43
SWIDTH 600 0
DWIDTH 9 0
BBX 7 8 1 1
BITMAP
30
30
30
FE
FE
30
30
30
ENDCHAR
STARTCHAR 002C
ENCODING 44
SWIDTH 266 0
DWIDTH 4 0
BBX 3 5 0 -2
BITMAP
60
60
60
40
C0
ENDCHAR
STARTCHAR 002D
ENCODING 45
SWIDTH 400 0
DWIDTH 6 0
BBX 4 2 1 4
BITMAP
F0
F0
ENDCHAR
STARTCHAR 002E
ENCODING 46
SWIDTH 266 0
DWIDTH 4 0
BBX 2 3 1 0
BITMAP
C0
C0
C0
ENDCHAR
STARTCHAR 002F
ENCODING 47
SWIDTH 466 0
DWIDTH 7 0
BBX 6 12 0 -1
BITMAP
0C
0C
0C
18
18
30
30
30
60
60
60
C0
ENDCHAR
STARTCHAR 0030
ENCODING 48
SWIDTH 600 0
DWIDTH 9 0
BBX 7 11 1 0
BITMAP
7C
FE
C6
C6
C6
C6
C6
C6
C6
FE
7C
ENDCHAR
STARTCHAR 0031
ENCODING 49
SWIDTH 600 0
DWIDTH 9 0
BBX 7 11 1 0
BITMAP
78
78
38
38
38
38
38
38
38
FE
FE
ENDCHAR
STARTCHAR 0032
ENCODING 50
SWIDTH 600 0
DWIDTH 9 0
BBX 7 11 1 0
BITMAP
FC
FE
06
06
1E
FC
E0
C0
C0
FE
FE
ENDCHAR
STARTCHAR 0033
ENCODING 51
SWIDTH 600 0
DWIDTH 9 0
BBX 7 11 1 0
BITMAP
FC
FE
06
06
7C
7C
06
06
06
FE
FC
ENDCHAR
STARTCHAR 0034
ENCODING 52
SWIDTH 600 0
DWIDTH 9 0
BBX 7 11 1 0
BITMAP
18
38
30
70
66
66
C6
FE
FE
06
06
ENDCHAR
STARTCHAR 0035
ENCODING 53
SWIDTH 600 0
DWIDTH 9 0
BBX 7 11 1 0
BITMAP
FC
FC
C0
C0
FC
FE
06
06
06
FE
FC
ENDCHAR
STARTCHAR 0036
ENCODING 54
SWIDTH 600 0
DWIDTH 9 0
BBX 7 11 1 0
BITMAP
7C
FC
C0
C0
FC
FE
C6
C6
C6
FE
7C
ENDCHAR
STARTCHAR 0037
ENCODING 55
SWIDTH 600 0
DWIDTH 9 0
BBX 7 11 1 0
BITMAP
FE
FE
06
0E
0C
1C
18
38
30
70
60
ENDCHAR
STARTCHAR 0038
ENCODING 56
SWIDTH 600 0
DWIDTH 9 0
BBX 7 11 1 0
BITMAP
7C
FE
C6
C6
FC
FC
C6
C6
C6
FE
7C
ENDCHAR
STARTCHAR 0039
ENCODING 57
SWIDTH 600 0
DWIDTH 9 0
BBX 7 11 1 0
BITMAP
7C
FE
C6
C6
C6
FE
7E
06
06
FE
7C
ENDCHAR
STARTCHAR 003A
ENCODING 58
SWIDTH 266 0
DWIDTH 4 0
BBX 2 9 1 0
BITMAP
C0
C0
C0
00
00
00
C0
C0
C0
ENDCHAR
STARTCHAR 003B
ENCODING 59
SWIDTH 266 0
DWIDTH 4 0
BBX 3 11 0 -2
BITMAP
60
60
60
00
00
00
60
60
60
40
C0
ENDCHAR
STARTCHAR 003C
ENCODING 60
SWIDTH 600 0
DWIDTH 9 0
BBX 7 7 1 2
BITMAP
0E
3C
F0
C0
F0
3C
0E
ENDCHAR
STARTCHAR 003D
ENCODING 61
SWIDTH 600 0
DWIDTH 9 0
BBX 7 5 1 2
BITMAP
FE
FE
00
FE
FE
ENDCHAR
STARTCHAR 003E
ENCODING 62
SWIDTH 600 0
DWIDTH 9 0
BBX 7 7 1 2
BITMAP
C0
78
1E
06
1E
78
C0
ENDCHAR
STARTCHAR 003F
ENCODING 63
SWIDTH 533 0
DWIDTH 8 0
BBX 6 11 1 0
BITMAP
F8
FC
0C
0C
0C
7C
78
00
60
60
60
ENDCHAR
STARTCHAR 0040
ENCODING 64
SWIDTH 800 0
DWIDTH 12 0
BBX 10 12 1 -1
BITMAP
7FC0
FFC0
C0C0
CFC0
CFC0
CCC0
CCC0
CFC0
CFC0
C000
FFC0
7F80
ENDCHAR
STARTCHAR 0041
ENCODING 65
SWIDTH 666 0
DWIDTH 10 0
BBX 10 11 0 0
BITMAP
1E00
1E00
1E00
3300
3300
3300
7380
7F80
7F80
6180
C1C0
ENDCHAR
STARTCHAR 0042
ENCODING 66
SWIDTH 666 0
DWIDTH 10 0
BBX 8 11 1 0
BITMAP
FE
FF
C7
C7
FE
FE
C3
C3
C3
FF
FE
ENDCHAR
STARTCHAR 0043
ENCODING 67
SWIDTH 600 0
DWIDTH 9 0
BBX 8 11 1 0
BITMAP
7E
FF
C0
C0
C0
C0
C0
C0
C0
FF
7E
ENDCHAR
STARTCHAR 0044
ENCODING 68
SWIDTH 666 0
DWIDTH 10 0
BBX 8 11 1 0
BITMAP
FE
FF
C3
C3
C3
C3
C3
C3
C3
FF
FE
ENDCHAR
STARTCHAR 0045
ENCODING 69
SWIDTH 600 0
DWIDTH 9 0
BBX 7 11 1 0
BITMAP
FE
FE
C0
C0
FE
FE
C0
C0
C0
FE
FE
ENDCHAR
STARTCHAR 0046
ENCODING 70
SWIDTH 600 0
DWIDTH 9 0
BBX 7 11 1 0
BITMAP
FE
FE
C0
C0
C0
FE
FE
C0
C0
C0
C0
ENDCHAR
STARTCHAR 0047
ENCODING 71
SWIDTH 666 0
DWIDTH 10 0
BBX 8 11 1 0
BITMAP
7F
FF
C0
C0
CF
CF
C3
C3
C3
FF
7F
ENDCHAR
STARTCHAR 0048
ENCODING 72
SWIDTH 733 0
DWIDTH 11 0
BBX 8 11 1 0
BITMAP
C3
C3
C3
C3
FF
FF
C3
C3
C3
C3
C3
ENDCHAR
STARTCHAR 0049
ENCODING 73
SWIDTH 333 0
DWIDTH 5 0
BBX 2 11 1 0
BITMAP
C0
C0
C0
C0
C0
C0
C0
C0
C0
C0
C0
ENDCHAR
STARTCHAR 004A
ENCODING 74
SWIDTH 600 0
DWIDTH 9 0
BBX 7 11 1 0
BITMAP
3E
3E
06
06
06
06
C6
C6
C6
FE
7C
ENDCHAR
STARTCHAR 004B
ENCODING 75
SWIDTH 666 0
DWIDTH 10 0
BBX 9 11 1 0
BITMAP
C300
C600
CE00
DC00
F800
F800
EC00
CE00
C600
C300
C380
ENDCHAR
STARTCHAR 004C
ENCODING 76
SWIDTH 533 0
DWIDTH 8 0
BBX 7 11 1 0
BITMAP
C0
C0
C0
C0
C0
C0
C0
C0
C0
FE
FE
ENDCHAR
STARTCHAR 004D
ENCODING 77
SWIDTH 866 0
DWIDTH 13 0
BBX 11 11 1 0
BITMAP
E0E0
E0E0
F0E0
F1E0
D9E0
DB60
DF60
CF60
CE60
C660
C060
ENDCHAR
STARTCHAR 004E
ENCODING 78
SWIDTH 733 0
DWIDTH 11 0
BBX 9 11 1 0
BITMAP
E180
E180
F180
F980
D980
DD80
CD80
C780
C780
C380
C380
ENDCHAR
STARTCHAR 004F
ENCODING 79
SWIDTH 733 0
DWIDTH 11 0
BBX 9 11 1 0
BITMAP
7F00
FF00
C380
C380
C380
C380
C380
C380
C380
FF00
7F00
ENDCHAR
STARTCHAR 0050
ENCODING 80
SWIDTH 666 0
DWIDTH 10 0
BBX 8 11 1 0
BITMAP
FE
FF
C3
C3
C3
FF
FE
C0
C0
C0
C0
ENDCHAR
STARTCHAR 0051
ENCODING 81
SWIDTH 733 0
DWIDTH 11 0
BBX 9 14 1 -3
BITMAP
7F00
FF00
C380
C380
C380
C380
C380
C380
C380
FF00
7F00
0600
0600
0300
ENDCHAR
STARTCHAR 0052
ENCODING 82
SWIDTH 666 0
DWIDTH 10 0
BBX 8 11 1 0
BITMAP
FE
FF
C3
C3
C3
FF
FE
CE
C6
C7
C3
ENDCHAR
STARTCHAR 0053
ENCODING 83
SWIDTH 600 0
DWIDTH 9 0
BBX 7 11 1 0
BITMAP
7C
FE
C0
C0
F0
FE
0E
06
06
FE
FC
ENDCHAR
STARTCHAR 0054
ENCODING 84
SWIDTH 600 0
DWIDTH 9 0
BBX 9 11 0 0
BITMAP
FF80
FF80
0C00
0C00
0C00
0C00
0C00
0C00
0C00
0C00
0C00
ENDCHAR
STARTCHAR 0055
ENCODING 85
SWIDTH 666 0
DWIDTH 10 0
BBX 8 11 1 0
BITMAP
C3
C3
C3
C3
C3
C3
C3
C3
C3
FF
7E
ENDCHAR
STARTCHAR 0056
ENCODING 86
SWIDTH 666 0
DWIDTH 10 0
BBX 10 11 0 0
BITMAP
E1C0
6180
6180
6380
7300
3300
3300
3700
1E00
1E00
1E00
ENDCHAR
STARTCHAR 0057
ENCODING 87
SWIDTH 933 0
DWIDTH 14 0
BBX 14 11 0 0
BITMAP
E00C
630C
639C
6398
6798
7798
3798
36F8
3CF0
3CF0
3CF0
ENDCHAR
STARTCHAR 0058
ENCODING 88
SWIDTH 666 0
DWIDTH 10 0
BBX 9 11 0 0
BITMAP
6180
7300
3700
1E00
1E00
0C00
1E00
3E00
3300
6380
E180
ENDCHAR
STARTCHAR 0059
ENCODING 89
SWIDTH 600 0
DWIDTH 9 0
BBX 9 11 0 0
BITMAP
E180
6300
7300
3600
3E00
1C00
1C00
0C00
0C00
0C00
0C00
ENDCHAR
STARTCHAR 005A
ENCODING 90
SWIDTH 600 0
DWIDTH 9 0
BBX 7 11 1 0
BITMAP
FE
FE
0E
0C
18
38
30
60
E0
FE
FE
ENDCHAR
STARTCHAR 005B
ENCODING 91
SWIDTH 400 0
DWIDTH 6 0
BBX 4 15 1 -3
BITMAP
F0
F0
C0
C0
C0
C0
C0
C0
C0
C0
C0
C0
C0
F0
F0
ENDCHAR
STARTCHAR 005C
ENCODING 92
SWIDTH 466 0
DWIDTH 7 0
BBX 6 12 0 -1
BITMAP
C0
60
60
60
30
30
30
18
18
0C
0C
0C
ENDCHAR
STARTCHAR 005D
ENCODING 93
SWIDTH 400 0
DWIDTH 6 0
BBX 5 15 0 -3
BITMAP
F8
F8
38
38
38
38
38
38
38
38
38
38
38
F8
F8
ENDCHAR
STARTCHAR 005E
ENCODING 94
SWIDTH 533 0
DWIDTH 8 0
BBX 8 6 0 5
BITMAP
1C
3C
36
66
E3
42
ENDCHAR
STARTCHAR 005F
ENCODING 95
SWIDTH 600 0
DWIDTH 9 0
BBX 7 2 1 -3
BITMAP
FE
FE
ENDCHAR
STARTCHAR 0060
ENCODING 96
SWIDTH 533 0
DWIDTH 8 0
BBX 3 4 2 9
BITMAP
80
C0
60
20
ENDCHAR
STARTCHAR 0061
ENCODING 97
SWIDTH 533 0
DWIDTH 8 0
BBX 6 8 1 0
BITMAP
7C
FC
0C
FC
FC
CC
FC
FC
ENDCHAR
STARTCHAR 0062
ENCODING 98
SWIDTH 600 0
DWIDTH 9 0
BBX 7 11 1 0
BITMAP
C0
C0
C0
FC
FE
C6
C6
C6
C6
FE
FC
ENDCHAR
STARTCHAR 0063
ENCODING 99
SWIDTH 533 0
DWIDTH 8 0
BBX 6 8 1 0
BITMAP
7C
FC
C0
C0
C0
C0
FC
7C
ENDCHAR
STARTCHAR 0064
ENCODING 100
SWIDTH 600 0
DWIDTH 9 0
BBX 7 11 1 0
BITMAP
06
06
06
7E
FE
C6
C6
C6
C6
FE
7E
ENDCHAR
STARTCHAR 0065
ENCODING 101
SWIDTH 600 0
DWIDTH 9 0
BBX 7 8 1 0
BITMAP
7C
FE
C6
FE
FE
C0
FC
7C
ENDCHAR
STARTCHAR 0066
ENCODING 102
SWIDTH 400 0
DWIDTH 6 0
BBX 5 11 1 0
BITMAP
78
F8
C0
F8
F8
C0
C0
C0
C0
C0
C0
ENDCHAR
STARTCHAR 0067
ENCODING 103
SWIDTH 600 0
DWIDTH 9 0
BBX 7 11 1 -3
BITMAP
7E
FE
C6
C6
C6
C6
FE
7E
06
7E
7C
ENDCHAR
STARTCHAR 0068
ENCODING 104
SWIDTH 600 0
DWIDTH 9 0
BBX 7 11 1 0
BITMAP
C0
C0
C0
FC
FE
C6
C6
C6
C6
C6
C6
ENDCHAR
STARTCHAR 0069
ENCODING 105
SWIDTH 266 0
DWIDTH 4 0
BBX 2 11 1 0
BITMAP
C0
C0
00
C0
C0
C0
C0
C0
C0
C0
C0
ENDCHAR
STARTCHAR 006A
ENCODING 106
SWIDTH 266 0
DWIDTH 4 0
BBX 3 14 0 -3
BITMAP
60
60
00
60
60
60
60
60
60
60
60
60
E0
C0
ENDCHAR
STARTCHAR 006B
ENCODING 107
SWIDTH 600 0
DWIDTH 9 0
BBX 7 11 1 0
BITMAP
C0
C0
C0
CE
CC
D8
F0
F8
DC
CE
C6
ENDCHAR
STARTCHAR 006C
ENCODING 108
SWIDTH 333 0
DWIDTH 5 0
BBX 3 11 1 0
BITMAP
C0
C0
C0
C0
C0
C0
C0
C0
C0
E0
60
ENDCHAR
STARTCHAR 006D
ENCODING 109
SWIDTH 933 0
DWIDTH 14 0
BBX 12 8 1 0
BITMAP
FFE0
FFE0
C670
C670
C670
C670
C670
C670
ENDCHAR
STARTCHAR 006E
ENCODING 110
SWIDTH 600 0
DWIDTH 9 0
BBX 7 8 1 0
BITMAP
FC
FE
C6
C6
C6
C6
C6
C6
ENDCHAR
STARTCHAR 006F
ENCODING 111
SWIDTH 600 0
DWIDTH 9 0
BBX 7 8 1 0
BITMAP
7C
FE
C6
C6
C6
C6
FE
7C
ENDCHAR
STARTCHAR 0070
ENCODING 112
SWIDTH 600 0
DWIDTH 9 0
BBX 7 11 1 -3
BITMAP
FC
FE
C6
C6
C6
C6
FE
FC
C0
C0
C0
ENDCHAR
STARTCHAR 0071
ENCODING 113
SWIDTH 600 0
DWIDTH 9 0
BBX 7 11 1 -3
BITMAP
7E
FE
C6
C6
C6
C6
FE
7E
06
06
06
ENDCHAR
STARTCHAR 0072
ENCODING 114
SWIDTH 400 0
DWIDTH 6 0
BBX 5 8 1 0
BITMAP
F0
F8
C0
C0
C0
C0
C0
C0
ENDCHAR
STARTCHAR 0073
ENCODING 115
SWIDTH 533 0
DWIDTH 8 0
BBX 6 8 1 0
BITMAP
78
F8
C0
F8
7C
0C
FC
F8
ENDCHAR
STARTCHAR 0074
ENCODING 116
SWIDTH 400 0
DWIDTH 6 0
BBX 5 11 1 0
BITMAP
C0
C0
C0
F8
F8
C0
C0
C0
C0
F8
78
ENDCHAR
STARTCHAR 0075
ENCODING 117
SWIDTH 600 0
DWIDTH 9 0
BBX 7 8 1 0
BITMAP
C6
C6
C6
C6
C6
C6
FE
7E
ENDCHAR
STARTCHAR 0076
ENCODING 118
SWIDTH 533 0
DWIDTH 8 0
BBX 8 8 0 0
BITMAP
C3
63
66
66
36
3C
3C
1C
ENDCHAR
STARTCHAR 0077
ENCODING 119
SWIDTH 800 0
DWIDTH 12 0
BBX 12 8 0 0
BITMAP
C630
6730
6F30
6F60
6D60
6DE0
39E0
39E0
ENDCHAR
STARTCHAR 0078
ENCODING 120
SWIDTH 533 0
DWIDTH 8 0
BBX 8 8 0 0
BITMAP
E7
76
3C
1C
1C
3C
76
E3
ENDCHAR
STARTCHAR 0079
ENCODING 121
SWIDTH 533 0
DWIDTH 8 0
BBX 8 11 0 -3
BITMAP
C3
63
66
66
36
3C
3C
1C
1C
18
18
ENDCHAR
STARTCHAR 007A
ENCODING 122
SWIDTH 533 0
DWIDTH 8 0
BBX 6 8 1 0
BITMAP
FC
FC
18
30
70
E0
FC
FC
ENDCHAR
STARTCHAR 007B
ENCODING 123
SWIDTH 400 0
DWIDTH 6 0
BBX 5 15 1 -3
BITMAP
38
78
60
60
60
60
E0
C0
E0
60
60
60
60
78
38
ENDCHAR
STARTCHAR 007C
ENCODING 124
SWIDTH 333 0
DWIDTH 5 0
BBX 2 14 1 -3
BITMAP
C0
C0
C0
C0
C0
C0
C0
C0
C0
C0
C0
C0
C0
C0
ENDCHAR
STARTCHAR 007D
ENCODING 125
SWIDTH 400 0
DWIDTH 6 0
BBX 6 15 0 -3
BITMAP
F0
F0
30
30
30
30
18
1C
18
30
30
30
30
F0
F0
ENDCHAR
STARTCHAR 007E
ENCODING 126
SWIDTH 600 0
DWIDTH 9 0
BBX 8 4 0 3
BITMAP
32
7B
EF
4E
ENDCHAR
STARTCHAR 00A0
ENCODING 160
SWIDTH 266 0
DWIDTH 4 0
BBX 0 0 0 0
BITMAP
ENDCHAR
STARTCHAR 00A1
ENCODING 161
SWIDTH 266 0
DWIDTH 4 0
BBX 2 11 1 -3
BITMAP
C0
C0
C0
00
C0
C0
C0
C0
C0
C0
C0
ENDCHAR
STARTCHAR 00A2
ENCODING 162
SWIDTH 600 0
DWIDTH 9 0
BBX 6 12 1 -2
BITMAP
18
18
7C
FC
C0
C0
C0
C0
FC
7C
18
18
ENDCHAR
STARTCHAR 00A3
ENCODING 163
SWIDTH 600 0
DWIDTH 9 0
BBX 7 11 1 0
BITMAP
3C
7E
60
60
60
F8
F8
60
60
FE
FE
ENDCHAR
STARTCHAR 00A4
ENCODING 164
SWIDTH 600 0
DWIDTH 9 0
BBX 7 7 1 2
BITMAP
C6
FC
7C
6C
7C
FC
C6
ENDCHAR
STARTCHAR 00A5
ENCODING 165
SWIDTH 600 0
DWIDTH 9 0
BBX 9 11 0 0
BITMAP
C380
6300
6700
3600
3E00
1C00
7E00
1800
7E00
1800
1800
ENDCHAR
STARTCHAR 00A6
ENCODING 166
SWIDTH 333 0
DWIDTH 5 0
BBX 2 14 1 -3
BITMAP
C0
C0
C0
C0
C0
C0
00
00
C0
C0
C0
C0
C0
C0
ENDCHAR
STARTCHAR 00A7
ENCODING 167
SWIDTH 533 0
DWIDTH 8 0
BBX 6 12 1 -1
BITMAP
7C
FC
C0
F8
FC
CC
CC
FC
7C
0C
FC
F8
ENDCHAR
STARTCHAR 00A8
ENCODING 168
SWIDTH 533 0
DWIDTH 8 0
BBX 5 2 1 9
BITMAP
D8
D8
ENDCHAR
STARTCHAR 00A9
ENCODING 169
SWIDTH 866 0
DWIDTH 13 0
BBX 11 10 1 0
BITMAP
FFC0
C060
DE60
D860
D060
D060
D860
DE60
C060
FFC0
ENDCHAR
STARTCHAR 00AA
ENCODING 170
SWIDTH 400 0
DWIDTH 6 0
BBX 4 7 1 4
BITMAP
F0
10
10
F0
90
90
F0
ENDCHAR
STARTCHAR 00AB
ENCODING 171
SWIDTH 600 0
DWIDTH 9 0
BBX 8 7 0 1
BITMAP
1B
33
66
EC
66
33
1B
ENDCHAR
STARTCHAR 00AC
ENCODING 172
SWIDTH 600 0
DWIDTH 9 0
BBX 7 4 1 3
BITMAP
FE
FE
06
06
ENDCHAR
STARTCHAR 00AD
ENCODING 173
SWIDTH 400 0
DWIDTH 6 0
BBX 4 2 1 4
BITMAP
F0
F0
ENDCHAR
STARTCHAR 00AE
ENCODING 174
SWIDTH 866 0
DWIDTH 13 0
BBX 11 10 1 0
BITMAP
FFC0
C060
DE60
DB60
DB60
DE60
DE60
DB60
C060
FFC0
ENDCHAR
STARTCHAR 00AF
ENCODING 175
SWIDTH 533 0
DWIDTH 8 0
BBX 4 1 2 9
BITMAP
F0
ENDCHAR
STARTCHAR 00B0
ENCODING 176
SWIDTH 400 0
DWIDTH 6 0
BBX 4 5 1 6
BITMAP
F0
90
90
90
F0
ENDCHAR
STARTCHAR 00B1
ENCODING 177
SWIDTH 600 0
DWIDTH 9 0
BBX 7 9 1 0
BITMAP
30
30
FE
FE
30
30
00
FE
FE
ENDCHAR
STARTCHAR 00B2
ENCODING 178
SWIDTH 333 0
DWIDTH 5 0
BBX 4 7 1 4
BITMAP
F0
30
30
F0
80
80
F0
ENDCHAR
STARTCHAR 00B3
ENCODING 179
SWIDTH 333 0
DWIDTH 5 0
BBX 4 7 1 4
BITMAP
F0
30
30
F0
30
30
E0
ENDCHAR
STARTCHAR 00B4
ENCODING 180
SWIDTH 533 0
DWIDTH 8 0
BBX 4 4 2 9
BITMAP
20
70
E0
40
ENDCHAR
STARTCHAR 00B5
ENCODING 181
SWIDTH 600 0
DWIDTH 9 0
BBX 7 11 1 -3
BITMAP
C6
C6
C6
C6
C6
C6
FE
FC
C0
C0
C0
ENDCHAR
STARTCHAR 00B6
ENCODING 182
SWIDTH 666 0
DWIDTH 10 0
BBX 7 14 1 -3
BITMAP
76
F6
F6
F6
F6
F6
76
06
06
06
06
06
06
06
ENDCHAR
STARTCHAR 00B7
ENCODING 183
SWIDTH 266 0
DWIDTH 4 0
BBX 2 3 1 4
BITMAP
C0
C0
C0
ENDCHAR
STARTCHAR 00B8
ENCODING 184
SWIDTH 533 0
DWIDTH 8 0
BBX 3 3 2 -2
BITMAP
20
20
E0
ENDCHAR
STARTCHAR 00B9
ENCODING 185
SWIDTH 333 0
DWIDTH 5 0
BBX 4 7 1 4
BITMAP
E0
60
60
60
60
60
F0
ENDCHAR
STARTCHAR 00BA
ENCODING 186
SWIDTH 466 0
DWIDTH 7 0
BBX 5 7 1 4
BITMAP
F0
98
98
98
98
98
F0
ENDCHAR
STARTCHAR 00BB
ENCODING 187
SWIDTH 600 0
DWIDTH 9 0
BBX 7 7 1 1
BITMAP
88
DC
6E
36
6E
DC
88
ENDCHAR
STARTCHAR 00BC
ENCODING 188
SWIDTH 866 0
DWIDTH 13 0
BBX 12 11 1 0
BITMAP
E180
6180
6100
6300
62C0
66C0
F4C0
0DB0
09B0
19F0
1830
ENDCHAR
STARTCHAR 00BD
ENCODING 189
SWIDTH 933 0
DWIDTH 14 0
BBX 12 11 1 0
BITMAP
E180
6180
6100
6300
62F0
6610
F410
0CF0
0880
1880
18F0
ENDCHAR
STARTCHAR 00BE
ENCODING 190
SWIDTH 866 0
DWIDTH 13 0
BBX 11 11 1 0
BITMAP
F100
3180
3300
F300
36C0
3680
ED80
0DA0
19A0
19E0
3020
ENDCHAR
STARTCHAR 00BF
ENCODING 191
SWIDTH 533 0
DWIDTH 8 0
BBX 6 11 1 -3
BITMAP
38
38
38
00
78
F8
C0
C0
C0
FC
7C
ENDCHAR
STARTCHAR 00C0
ENCODING 192
SWIDTH 666 0
DWIDTH 10 0
BBX 10 16 0 0
BITMAP
0800
1800
0C00
0400
0000
1E00
1E00
1E00
3300
3300
3300
7380
7F80
7F80
6180
C1C0
ENDCHAR
STARTCHAR 00C1
ENCODING 193
SWIDTH 666 0
DWIDTH 10 0
BBX 10 16 0 0
BITMAP
0400
0600
0C00
0800
0000
1E00
1E00
1E00
3300
3300
3300
7380
7F80
7F80
6180
C1C0
ENDCHAR
STARTCHAR 00C2
ENCODING 194
SWIDTH 666 0
DWIDTH 10 0
BBX 10 15 0 0
BITMAP
0C00
1E00
1200
0000
1E00
1E00
1E00
3300
3300
3300
7380
7F80
7F80
6180
C1C0
ENDCHAR
STARTCHAR 00C3
ENCODING 195
SWIDTH 666 0
DWIDTH 10 0
BBX 10 15 0 0
BITMAP
1A00
3F00
1600
0000
1E00
1E00
1E00
3300
3300
3300
7380
7F80
7F80
6180
C1C0
ENDCHAR
STARTCHAR 00C4
ENCODING 196
SWIDTH 666 0
DWIDTH 10 0
BBX 10 14 0 0
BITMAP
1200
1200
0000
1E00
1E00
1E00
3300
3300
3300
7380
7F80
7F80
6180
C1C0
ENDCHAR
STARTCHAR 00C5
ENCODING 197
SWIDTH 666 0
DWIDTH 10 0
BBX 10 16 0 0
BITMAP
1E00
1200
1200
1E00
0000
1E00
1E00
1E00
3300
3300
3300
7380
7F80
7F80
6180
C1C0
ENDCHAR
STARTCHAR 00C6
ENCODING 198
SWIDTH 933 0
DWIDTH 14 0
BBX 13 11 0 0
BITMAP
1FF8
1FF8
1B00
3300
33F8
33F8
7300
7F00
7F00
63F8
C3F8
ENDCHAR
STARTCHAR 00C7
ENCODING 199
SWIDTH 600 0
DWIDTH 9 0
BBX 8 13 1 -2
BITMAP
7E
FF
C0
C0
C0
C0
C0
C0
C0
FF
7E
0C
3C
ENDCHAR
STARTCHAR 00C8
ENCODING 200
SWIDTH 600 0
DWIDTH 9 0
BBX 7 16 1 0
BITMAP
20
30
18
08
00
FE
FE
C0
C0
FE
FE
C0
C0
C0
FE
FE
ENDCHAR
STARTCHAR 00C9
ENCODING 201
SWIDTH 600 0
DWIDTH 9 0
BBX 7 16 1 0
BITMAP
08
0C
18
10
00
FE
FE
C0
C0
FE
FE
C0
C0
C0
FE
FE
ENDCHAR
STARTCHAR 00CA
ENCODING 202
SWIDTH 600 0
DWIDTH 9 0
BBX 7 15 1 0
BITMAP
10
38
64
00
FE
FE
C0
C0
FE
FE
C0
C0
C0
FE
FE
ENDCHAR
STARTCHAR 00CB
ENCODING 203
SWIDTH 600 0
DWIDTH 9 0
BBX 7 14 1 0
BITMAP
6C
6C
00
FE
FE
C0
C0
FE
FE
C0
C0
C0
FE
FE
ENDCHAR
STARTCHAR 00CC
ENCODING 204
SWIDTH 333 0
DWIDTH 5 0
BBX 4 16 0 0
BITMAP
40
E0
70
20
00
60
60
60
60
60
60
60
60
60
60
60
ENDCHAR
STARTCHAR 00CD
ENCODING 205
SWIDTH 333 0
DWIDTH 5 0
BBX 3 16 1 0
BITMAP
20
60
C0
40
00
C0
C0
C0
C0
C0
C0
C0
C0
C0
C0
C0
ENDCHAR
STARTCHAR 00CE
ENCODING 206
SWIDTH 333 0
DWIDTH 5 0
BBX 5 15 0 0
BITMAP
20
70
98
00
60
60
60
60
60
60
60
60
60
60
60
ENDCHAR
STARTCHAR 00CF
ENCODING 207
SWIDTH 333 0
DWIDTH 5 0
BBX 5 14 0 0
BITMAP
D8
D8
00
60
60
60
60
60
60
60
60
60
60
60
ENDCHAR
STARTCHAR 00D0
ENCODING 208
SWIDTH 733 0
DWIDTH 11 0
BBX 10 11 0 0
BITMAP
7F00
7F80
7180
71C0
71C0
FDC0
FDC0
71C0
7180
7F80
7F00
ENDCHAR
STARTCHAR 00D1
ENCODING 209
SWIDTH 733 0
DWIDTH 11 0
BBX 9 15 1 0
BITMAP
1A00
3A00
2400
0000
E180
E180
F180
F980
D980
DD80
CD80
C780
C780
C380
C380
ENDCHAR
STARTCHAR 00D2
ENCODING 210
SWIDTH 733 0
DWIDTH 11 0
BBX 9 16 1 0
BITMAP
1000
3800
1C00
0800
0000
7F00
FF00
C380
C380
C380
C380
C380
C380
C380
FF00
7F00
ENDCHAR
STARTCHAR 00D3
ENCODING 211
SWIDTH 733 0
DWIDTH 11 0
BBX 9 16 1 0
BITMAP
0400
0C00
1800
0800
0000
7F00
FF00
C380
C380
C380
C380
C380
C380
C380
FF00
7F00
ENDCHAR
STARTCHAR 00D4
ENCODING 212
SWIDTH 733 0
DWIDTH 11 0
BBX 9 15 1 0
BITMAP
0800
1C00
2600
0000
7F00
FF00
C380
C380
C380
C380
C380
C380
C380
FF00
7F00
ENDCHAR
STARTCHAR 00D5
ENCODING 213
SWIDTH 733 0
DWIDTH 11 0
BBX 9 15 1 0
BITMAP
1200
2E00
2C00
0000
7F00
FF00
C380
C380
C380
C380
C380
C380
C380
FF00
7F00
ENDCHAR
STARTCHAR 00D6
ENCODING 214
SWIDTH 733 0
DWIDTH 11 0
BBX 9 14 1 0
BITMAP
3600
3600
0000
7F00
FF00
C380
C380
C380
C380
C380
C380
C380
FF00
7F00
ENDCHAR
STARTCHAR 00D7
ENCODING 215
SWIDTH 600 0
DWIDTH 9 0
BBX 7 7 1 2
BITMAP
44
EE
7C
38
7C
EE
44
ENDCHAR
STARTCHAR 00D8
ENCODING 216
SWIDTH 733 0
DWIDTH 11 0
BBX 9 11 1 0
BITMAP
7F00
FF00
C380
C780
CF80
DB80
D380
E380
C380
FF00
7F00
ENDCHAR
STARTCHAR 00D9
ENCODING 217
SWIDTH 666 0
DWIDTH 10 0
BBX 8 16 1 0
BITMAP
10
38
1C
08
00
C3
C3
C3
C3
C3
C3
C3
C3
C3
FF
7E
ENDCHAR
STARTCHAR 00DA
ENCODING 218
SWIDTH 666 0
DWIDTH 10 0
BBX 8 16 1 0
BITMAP
04
0C
18
10
00
C3
C3
C3
C3
C3
C3
C3
C3
C3
FF
7E
ENDCHAR
STARTCHAR 00DB
ENCODING 219
SWIDTH 666 0
DWIDTH 10 0
BBX 8 15 1 0
BITMAP
08
1C
26
00
C3
C3
C3
C3
C3
C3
C3
C3
C3
FF
7E
ENDCHAR
STARTCHAR 00DC
ENCODING 220
SWIDTH 666 0
DWIDTH 10 0
BBX 8 14 1 0
BITMAP
36
36
00
C3
C3
C3
C3
C3
C3
C3
C3
C3
FF
7E
ENDCHAR
STARTCHAR 00DD
ENCODING 221
SWIDTH 600 0
DWIDTH 9 0
BBX 9 16 0 0
BITMAP
0400
0E00
1C00
0800
0000
E180
6300
7300
3600
3E00
1C00
1C00
0C00
0C00
0C00
0C00
ENDCHAR
STARTCHAR 00DE
ENCODING 222
SWIDTH 666 0
DWIDTH 10 0
BBX 8 11 1 0
BITMAP
C0
C0
FE
FF
C3
C3
C3
FF
FE
C0
C0
ENDCHAR
STARTCHAR 00DF
ENCODING 223
SWIDTH 600 0
DWIDTH 9 0
BBX 7 11 1 0
BITMAP
7C
FE
C6
C6
DE
DE
C6
C6
C6
DE
DE
ENDCHAR
STARTCHAR 00E0
ENCODING 224
SWIDTH 533 0
DWIDTH 8 0
BBX 6 13 1 0
BITMAP
20
60
30
10
00
7C
FC
0C
FC
FC
CC
FC
FC
ENDCHAR
STARTCHAR 00E1
ENCODING 225
SWIDTH 533 0
DWIDTH 8 0
BBX 6 13 1 0
BITMAP
10
18
30
20
00
7C
FC
0C
FC
FC
CC
FC
FC
ENDCHAR
STARTCHAR 00E2
ENCODING 226
SWIDTH 533 0
DWIDTH 8 0
BBX 6 12 1 0
BITMAP
10
78
48
00
7C
FC
0C
FC
FC
CC
FC
FC
ENDCHAR
STARTCHAR 00E3
ENCODING 227
SWIDTH 533 0
DWIDTH 8 0
BBX 6 12 1 0
BITMAP
68
DC
58
00
7C
FC
0C
FC
FC
CC
FC
FC
ENDCHAR
STARTCHAR 00E4
ENCODING 228
SWIDTH 533 0
DWIDTH 8 0
BBX 6 11 1 0
BITMAP
6C
6C
00
7C
FC
0C
FC
FC
CC
FC
FC
ENDCHAR
STARTCHAR 00E5
ENCODING 229
SWIDTH 533 0
DWIDTH 8 0
BBX 6 13 1 0
BITMAP
38
68
68
38
00
7C
FC
0C
FC
FC
CC
FC
FC
ENDCHAR
STARTCHAR 00E6
ENCODING 230
SWIDTH 866 0
DWIDTH 13 0
BBX 11 8 1 0
BITMAP
7FC0
FFE0
0C60
FFE0
FFE0
CC00
FFE0
FFC0
ENDCHAR
STARTCHAR 00E7
ENCODING 231
SWIDTH 533 0
DWIDTH 8 0
BBX 6 10 1 -2
BITMAP
7C
FC
C0
C0
C0
C0
FC
7C
18
38
ENDCHAR
STARTCHAR 00E8
ENCODING 232
SWIDTH 600 0
DWIDTH 9 0
BBX 7 13 1 0
BITMAP
20
70
38
10
00
7C
FE
C6
FE
FE
C0
FC
7C
ENDCHAR
STARTCHAR 00E9
ENCODING 233
SWIDTH 600 0
DWIDTH 9 0
BBX 7 13 1 0
BITMAP
08
18
30
10
00
7C
FE
C6
FE
FE
C0
FC
7C
ENDCHAR
STARTCHAR 00EA
ENCODING 234
SWIDTH 600 0
DWIDTH 9 0
BBX 7 12 1 0
BITMAP
10
38
4C
00
7C
FE
C6
FE
FE
C0
FC
7C
ENDCHAR
STARTCHAR 00EB
ENCODING 235
SWIDTH 600 0
DWIDTH 9 0
BBX 7 11 1 0
BITMAP
6C
6C
00
7C
FE
C6
FE
FE
C0
FC
7C
ENDCHAR
STARTCHAR 00EC
ENCODING 236
SWIDTH 266 0
DWIDTH 4 0
BBX 3 13 0 0
BITMAP
40
C0
60
20
00
60
60
60
60
60
60
60
60
ENDCHAR
STARTCHAR 00ED
ENCODING 237
SWIDTH 266 0
DWIDTH 4 0
BBX 3 13 1 0
BITMAP
40
60
C0
80
00
C0
C0
C0
C0
C0
C0
C0
C0
ENDCHAR
STARTCHAR 00EE
ENCODING 238
SWIDTH 266 0
DWIDTH 4 0
BBX 4 12 0 0
BITMAP
20
F0
90
00
60
60
60
60
60
60
60
60
ENDCHAR
STARTCHAR 00EF
ENCODING 239
SWIDTH 266 0
DWIDTH 4 0
BBX 5 11 0 0
BITMAP
D8
D8
00
60
60
60
60
60
60
60
60
ENDCHAR
STARTCHAR 00F0
ENCODING 240
SWIDTH 600 0
DWIDTH 9 0
BBX 7 11 1 0
BITMAP
34
1E
7C
2C
7E
FE
C6
C6
C6
FE
7C
ENDCHAR
STARTCHAR 00F1
ENCODING 241
SWIDTH 600 0
DWIDTH 9 0
BBX 7 12 1 0
BITMAP
24
5C
58
00
FC
FE
C6
C6
C6
C6
C6
C6
ENDCHAR
STARTCHAR 00F2
ENCODING 242
SWIDTH 600 0
DWIDTH 9 0
BBX 7 13 1 0
BITMAP
20
30
18
10
00
7C
FE
C6
C6
C6
C6
FE
7C
ENDCHAR
STARTCHAR 00F3
ENCODING 243
SWIDTH 600 0
DWIDTH 9 0
BBX 7 13 1 0
BITMAP
08
18
30
10
00
7C
FE
C6
C6
C6
C6
FE
7C
ENDCHAR
STARTCHAR 00F4
ENCODING 244
SWIDTH 600 0
DWIDTH 9 0
BBX 7 12 1 0
BITMAP
10
38
6C
00
7C
FE
C6
C6
C6
C6
FE
7C
ENDCHAR
STARTCHAR 00F5
ENCODING 245
SWIDTH 600 0
DWIDTH 9 0
BBX 7 12 1 0
BITMAP
24
5C
58
00
7C
FE
C6
C6
C6
C6
FE
7C
ENDCHAR
STARTCHAR 00F6
ENCODING 246
SWIDTH 600 0
DWIDTH 9 0
BBX 7 11 1 0
BITMAP
6C
6C
00
7C
FE
C6
C6
C6
C6
FE
7C
ENDCHAR
STARTCHAR 00F7
ENCODING 247
SWIDTH 600 0
DWIDTH 9 0
BBX 7 8 1 1
BITMAP
30
30
00
FE
FE
00
30
30
ENDCHAR
STARTCHAR 00F8
ENCODING 248
SWIDTH 600 0
DWIDTH 9 0
BBX 7 8 1 0
BITMAP
7C
FE
CE
DE
F6
E6
FE
7C
ENDCHAR
STARTCHAR 00F9
ENCODING 249
SWIDTH 600 0
DWIDTH 9 0
BBX 7 13 1 0
BITMAP
20
30
38
10
00
C6
C6
C6
C6
C6
C6
FE
7E
ENDCHAR
STARTCHAR 00FA
ENCODING 250
SWIDTH 600 0
DWIDTH 9 0
BBX 7 13 1 0
BITMAP
08
18
30
10
00
C6
C6
C6
C6
C6
C6
FE
7E
ENDCHAR
STARTCHAR 00FB
ENCODING 251
SWIDTH 600 0
DWIDTH 9 0
BBX 7 12 1 0
BITMAP
10
38
6C
00
C6
C6
C6
C6
C6
C6
FE
7E
ENDCHAR
STARTCHAR 00FC
ENCODING 252
SWIDTH 600 0
DWIDTH 9 0
BBX 7 11 1 0
BITMAP
6C
6C
00
C6
C6
C6
C6
C6
C6
FE
7E
ENDCHAR
STARTCHAR 00FD
ENCODING 253
SWIDTH 533 0
DWIDTH 8 0
BBX 8 16 0 -3
BITMAP
08
0C
18
10
00
C3
63
66
66
36
3C
3C
1C
1C
18
18
ENDCHAR
STARTCHAR 00FE
ENCODING 254
SWIDTH 600 0
DWIDTH 9 0
BBX 7 14 1 -3
BITMAP
C0
C0
C0
FC
FE
C6
C6
C6
C6
FE
FC
C0
C0
C0
ENDCHAR
STARTCHAR 00FF
ENCODING 255
SWIDTH 533 0
DWIDTH 8 0
BBX 8 14 0 -3
BITMAP
36
36
00
C3
63
66
66
36
3C
3C
1C
1C
18
18
ENDCHAR
STARTCHAR 0100
ENCODING 256
SWIDTH 666 0
DWIDTH 10 0
BBX 10 13 0 0
BITMAP
1E00
0000
1E00
1E00
1E00
3300
3300
3300
7380
7F80
7F80
6180
C1C0
ENDCHAR
STARTCHAR 0101
ENCODING 257
SWIDTH 533 0
DWIDTH 8 0
BBX 6 10 1 0
BITMAP
78
00
7C
FC
0C
FC
FC
CC
FC
FC
ENDCHAR
STARTCHAR 0102
ENCODING 258
SWIDTH 666 0
DWIDTH 10 0
BBX 10 15 0 0
BITMAP
1200
1200
1E00
0000
1E00
1E00
1E00
3300
3300
3300
7380
7F80
7F80
6180
C1C0
ENDCHAR
STARTCHAR 0103
ENCODING 259
SWIDTH 533 0
DWIDTH 8 0
BBX 6 12 1 0
BITMAP
48
48
78
00
7C
FC
0C
FC
FC
CC
FC
FC
ENDCHAR
STARTCHAR 0104
ENCODING 260
SWIDTH 666 0
DWIDTH 10 0
BBX 10 13 0 -2
BITMAP
1E00
1E00
1E00
3300
3300
3300
7380
7F80
7F80
6180
C1C0
0300
01C0
ENDCHAR
STARTCHAR 0105
ENCODING 261
SWIDTH 533 0
DWIDTH 8 0
BBX 6 10 1 -2
BITMAP
7C
FC
0C
FC
FC
CC
FC
FC
18
1C
ENDCHAR
STARTCHAR 0106
ENCODING 262
SWIDTH 600 0
DWIDTH 9 0
BBX 8 16 1 0
BITMAP
08
0C
18
10
00
7E
FF
C0
C0
C0
C0
C0
C0
C0
FF
7E
ENDCHAR
STARTCHAR 0107
ENCODING 263
SWIDTH 533 0
DWIDTH 8 0
BBX 6 13 1 0
BITMAP
08
18
30
10
00
7C
FC
C0
C0
C0
C0
FC
7C
ENDCHAR
STARTCHAR 010C
ENCODING 268
SWIDTH 600 0
DWIDTH 9 0
BBX 8 15 1 0
BITMAP
26
1C
08
00
7E
FF
C0
C0
C0
C0
C0
C0
C0
FF
7E
ENDCHAR
STARTCHAR 010D
ENCODING 269
SWIDTH 533 0
DWIDTH 8 0
BBX 6 12 1 0
BITMAP
4C
38
10
00
7C
FC
C0
C0
C0
C0
FC
7C
ENDCHAR
STARTCHAR 010E
ENCODING 270
SWIDTH 666 0
DWIDTH 10 0
BBX 8 15 1 0
BITMAP
24
3C
18
00
FE
FF
C3
C3
C3
C3
C3
C3
C3
FF
FE
ENDCHAR
STARTCHAR 010F
ENCODING 271
SWIDTH 666 0
DWIDTH 10 0
BBX 10 11 1 0
BITMAP
06C0
0680
0680
7E00
FE00
C600
C600
C600
C600
FE00
7E00
ENDCHAR
STARTCHAR 0110
ENCODING 272
SWIDTH 733 0
DWIDTH 11 0
BBX 10 11 0 0
BITMAP
7F00
7F80
7180
71C0
71C0
FDC0
FDC0
71C0
7180
7F80
7F00
ENDCHAR
STARTCHAR 0111
ENCODING 273
SWIDTH 600 0
DWIDTH 9 0
BBX 8 11 1 0
BITMAP
06
1F
06
7E
FE
C6
C6
C6
C6
FE
7E
ENDCHAR
STARTCHAR 0112
ENCODING 274
SWIDTH 600 0
DWIDTH 9 0
BBX 7 13 1 0
BITMAP
3C
00
FE
FE
C0
C0
FE
FE
C0
C0
C0
FE
FE
ENDCHAR
STARTCHAR 0113
ENCODING 275
SWIDTH 600 0
DWIDTH 9 0
BBX 7 10 1 0
BITMAP
7C
00
7C
FE
C6
FE
FE
C0
FC
7C
ENDCHAR
STARTCHAR 0116
ENCODING 278
SWIDTH 600 0
DWIDTH 9 0
BBX 7 14 1 0
BITMAP
18
18
00
FE
FE
C0
C0
FE
FE
C0
C0
C0
FE
FE
ENDCHAR
STARTCHAR 0117
ENCODING 279
SWIDTH 600 0
DWIDTH 9 0
BBX 7 11 1 0
BITMAP
30
30
00
7C
FE
C6
FE
FE
C0
FC
7C
ENDCHAR
STARTCHAR 0118
ENCODING 280
SWIDTH 600 0
DWIDTH 9 0
BBX 7 13 1 -2
BITMAP
FE
FE
C0
C0
FE
FE
C0
C0
C0
FE
FE
0C
0E
ENDCHAR
STARTCHAR 0119
ENCODING 281
SWIDTH 600 0
DWIDTH 9 0
BBX 7 10 1 -2
BITMAP
7C
FE
C6
FE
FE
C0
FC
7C
18
1C
ENDCHAR
STARTCHAR 011A
ENCODING 282
SWIDTH 600 0
DWIDTH 9 0
BBX 7 15 1 0
BITMAP
64
38
10
00
FE
FE
C0
C0
FE
FE
C0
C0
C0
FE
FE
ENDCHAR
STARTCHAR 011B
ENCODING 283
SWIDTH 600 0
DWIDTH 9 0
BBX 7 12 1 0
BITMAP
4C
38
10
00
7C
FE
C6
FE
FE
C0
FC
7C
ENDCHAR
STARTCHAR 011E
ENCODING 286
SWIDTH 666 0
DWIDTH 10 0
BBX 8 15 1 0
BITMAP
24
24
3C
00
7F
FF
C0
C0
CF
CF
C3
C3
C3
FF
7F
ENDCHAR
STARTCHAR 011F
ENCODING 287
SWIDTH 600 0
DWIDTH 9 0
BBX 7 15 1 -3
BITMAP
48
48
38
00
7E
FE
C6
C6
C6
C6
FE
7E
06
7E
7C
ENDCHAR
STARTCHAR 0122
ENCODING 290
SWIDTH 666 0
DWIDTH 10 0
BBX 8 15 1 -4
BITMAP
7F
FF
C0
C0
CF
CF
C3
C3
C3
FF
7F
00
18
18
10
ENDCHAR
STARTCHAR 0123
ENCODING 291
SWIDTH 600 0
DWIDTH 9 0
BBX 7 15 1 -3
BITMAP
18
18
10
00
7E
FE
C6
C6
C6
C6
FE
7E
06
7E
7C
ENDCHAR
STARTCHAR 012A
ENCODING 298
SWIDTH 333 0
DWIDTH 5 0
BBX 5 13 0 0
BITMAP
F8
00
60
60
60
60
60
60
60
60
60
60
60
ENDCHAR
STARTCHAR 012B
ENCODING 299
SWIDTH 266 0
DWIDTH 4 0
BBX 4 10 0 0
BITMAP
F0
00
60
60
60
60
60
60
60
60
ENDCHAR
STARTCHAR 012E
ENCODING 302
SWIDTH 333 0
DWIDTH 5 0
BBX 4 13 0 -2
BITMAP
60
60
60
60
60
60
60
60
60
60
E0
C0
F0
ENDCHAR
STARTCHAR 012F
ENCODING 303
SWIDTH 266 0
DWIDTH 4 0
BBX 3 13 0 -2
BITMAP
60
60
00
60
60
60
60
60
60
60
E0
C0
E0
ENDCHAR
STARTCHAR 0130
ENCODING 304
SWIDTH 333 0
DWIDTH 5 0
BBX 2 14 1 0
BITMAP
C0
C0
00
C0
C0
C0
C0
C0
C0
C0
C0
C0
C0
C0
ENDCHAR
STARTCHAR 0131
ENCODING 305
SWIDTH 266 0
DWIDTH 4 0
BBX 2 8 1 0
BITMAP
C0
C0
C0
C0
C0
C0
C0
C0
ENDCHAR
STARTCHAR 0136
ENCODING 310
SWIDTH 666 0
DWIDTH 10 0
BBX 9 15 1 -4
BITMAP
C300
C600
CE00
DC00
F800
F800
EC00
CE00
C600
C300
C380
0000
1800
1800
1000
ENDCHAR
STARTCHAR 0137
ENCODING 311
SWIDTH 600 0
DWIDTH 9 0
BBX 7 15 1 -4
BITMAP
C0
C0
C0
CE
CC
D8
F0
F8
DC
CE
C6
00
30
30
30
ENDCHAR
STARTCHAR 0139
ENCODING 313
SWIDTH 533 0
DWIDTH 8 0
BBX 7 16 1 0
BITMAP
20
70
E0
40
00
C0
C0
C0
C0
C0
C0
C0
C0
C0
FE
FE
ENDCHAR
STARTCHAR 013A
ENCODING 314
SWIDTH 333 0
DWIDTH 5 0
BBX 3 16 1 0
BITMAP
40
60
C0
80
00
C0
C0
C0
C0
C0
C0
C0
C0
C0
E0
60
ENDCHAR
STARTCHAR 013B
ENCODING 315
SWIDTH 533 0
DWIDTH 8 0
BBX 7 15 1 -4
BITMAP
C0
C0
C0
C0
C0
C0
C0
C0
C0
FE
FE
00
10
30
30
ENDCHAR
STARTCHAR 013C
ENCODING 316
SWIDTH 333 0
DWIDTH 5 0
BBX 3 15 1 -4
BITMAP
C0
C0
C0
C0
C0
C0
C0
C0
C0
E0
60
00
60
40
C0
ENDCHAR
STARTCHAR 013D
ENCODING 317
SWIDTH 533 0
DWIDTH 8 0
BBX 7 11 1 0
BITMAP
C0
CC
CC
C8
C0
C0
C0
C0
C0
FE
FE
ENDCHAR
STARTCHAR 013E
ENCODING 318
SWIDTH 400 0
DWIDTH 6 0
BBX 5 11 1 0
BITMAP
D8
D8
D0
C0
C0
C0
C0
C0
C0
E0
60
ENDCHAR
STARTCHAR 0141
ENCODING 321
SWIDTH 600 0
DWIDTH 9 0
BBX 8 11 0 0
BITMAP
30
30
30
34
3C
78
F0
70
30
3F
3F
ENDCHAR
STARTCHAR 0142
ENCODING 322
SWIDTH 333 0
DWIDTH 5 0
BBX 5 11 0 0
BITMAP
60
60
60
68
78
E0
E0
60
60
30
30
ENDCHAR
STARTCHAR 0143
ENCODING 323
SWIDTH 733 0
DWIDTH 11 0
BBX 9 16 1 0
BITMAP
0400
0E00
1C00
0800
0000
E180
E180
F180
F980
D980
DD80
CD80
C780
C780
C380
C380
ENDCHAR
STARTCHAR 0144
ENCODING 324
SWIDTH 600 0
DWIDTH 9 0
BBX 7 13 1 0
BITMAP
08
18
30
10
00
FC
FE
C6
C6
C6
C6
C6
C6
ENDCHAR
STARTCHAR 0145
ENCODING 325
SWIDTH 733 0
DWIDTH 11 0
BBX 9 15 1 -4
BITMAP
E180
E180
F180
F980
D980
DD80
CD80
C780
C780
C380
C380
0000
1800
1800
1800
ENDCHAR
STARTCHAR 0146
ENCODING 326
SWIDTH 600 0
DWIDTH 9 0
BBX 7 12 1 -4
BITMAP
FC
FE
C6
C6
C6
C6
C6
C6
00
10
30
30
ENDCHAR
STARTCHAR 0147
ENCODING 327
SWIDTH 733 0
DWIDTH 11 0
BBX 9 15 1 0
BITMAP
3200
1C00
0800
0000
E180
E180
F180
F980
D980
DD80
CD80
C780
C780
C380
C380
ENDCHAR
STARTCHAR 0148
ENCODING 328
SWIDTH 600 0
DWIDTH 9 0
BBX 7 12 1 0
BITMAP
6C
38
10
00
FC
FE
C6
C6
C6
C6
C6
C6
ENDCHAR
STARTCHAR 014C
ENCODING 332
SWIDTH 733 0
DWIDTH 11 0
BBX 9 13 1 0
BITMAP
3E00
0000
7F00
FF00
C380
C380
C380
C380
C380
C380
C380
FF00
7F00
ENDCHAR
STARTCHAR 014D
ENCODING 333
SWIDTH 600 0
DWIDTH 9 0
BBX 7 10 1 0
BITMAP
7C
00
7C
FE
C6
C6
C6
C6
FE
7C
ENDCHAR
STARTCHAR 0150
ENCODING 336
SWIDTH 733 0
DWIDTH 11 0
BBX 9 16 1 0
BITMAP
1200
1F00
3600
2400
0000
7F00
FF00
C380
C380
C380
C380
C380
C380
C380
FF00
7F00
ENDCHAR
STARTCHAR 0151
ENCODING 337
SWIDTH 600 0
DWIDTH 9 0
BBX 7 13 1 0
BITMAP
24
36
6C
48
00
7C
FE
C6
C6
C6
C6
FE
7C
ENDCHAR
STARTCHAR 0152
ENCODING 338
SWIDTH 1000 0
DWIDTH 15 0
BBX 13 11 1 0
BITMAP
7FF8
FFF8
C300
C300
C3F0
C3F0
C300
C300
C300
FFF8
7FF8
ENDCHAR
STARTCHAR 0153
ENCODING 339
SWIDTH 933 0
DWIDTH 14 0
BBX 12 8 1 0
BITMAP
7FE0
FFF0
C630
C7F0
C7F0
C600
FFE0
7FE0
ENDCHAR
STARTCHAR 0154
ENCODING 340
SWIDTH 666 0
DWIDTH 10 0
BBX 8 16 1 0
BITMAP
08
0C
18
10
00
FE
FF
C3
C3
C3
FF
FE
CE
C6
C7
C3
ENDCHAR
STARTCHAR 0155
ENCODING 341
SWIDTH 400 0
DWIDTH 6 0
BBX 5 13 1 0
BITMAP
10
30
60
40
00
F0
F8
C0
C0
C0
C0
C0
C0
ENDCHAR
STARTCHAR 0156
ENCODING 342
SWIDTH 666 0
DWIDTH 10 0
BBX 8 15 1 -4
BITMAP
FE
FF
C3
C3
C3
FF
FE
CE
C6
C7
C3
00
18
10
30
ENDCHAR
STARTCHAR 0157
ENCODING 343
SWIDTH 400 0
DWIDTH 6 0
BBX 6 12 0 -4
BITMAP
78
7C
60
60
60
60
60
60
00
60
40
C0
ENDCHAR
STARTCHAR 0158
ENCODING 344
SWIDTH 666 0
DWIDTH 10 0
BBX 8 15 1 0
BITMAP
64
38
10
00
FE
FF
C3
C3
C3
FF
FE
CE
C6
C7
C3
ENDCHAR
STARTCHAR 0159
ENCODING 345
SWIDTH 400 0
DWIDTH 6 0
BBX 5 12 1 0
BITMAP
98
70
20
00
F0
F8
C0
C0
C0
C0
C0
C0
ENDCHAR
STARTCHAR 015A
ENCODING 346
SWIDTH 600 0
DWIDTH 9 0
BBX 7 16 1 0
BITMAP
08
18
30
10
00
7C
FE
C0
C0
F0
FE
0E
06
06
FE
FC
ENDCHAR
STARTCHAR 015B
ENCODING 347
SWIDTH 533 0
DWIDTH 8 0
BBX 6 13 1 0
BITMAP
10
18
30
20
00
78
F8
C0
F8
7C
0C
FC
F8
ENDCHAR
STARTCHAR 015E
ENCODING 350
SWIDTH 600 0
DWIDTH 9 0
BBX 7 13 1 -2
BITMAP
7C
FE
C0
C0
F0
FE
0E
06
06
FE
FC
18
38
ENDCHAR
STARTCHAR 015F
ENCODING 351
SWIDTH 533 0
DWIDTH 8 0
BBX 6 10 1 -2
BITMAP
78
F8
C0
F8
7C
0C
FC
F8
10
70
ENDCHAR
STARTCHAR 0160
ENCODING 352
SWIDTH 600 0
DWIDTH 9 0
BBX 7 15 1 0
BITMAP
6C
38
10
00
7C
FE
C0
C0
F0
FE
0E
06
06
FE
FC
ENDCHAR
STARTCHAR 0161
ENCODING 353
SWIDTH 533 0
DWIDTH 8 0
BBX 6 12 1 0
BITMAP
C8
70
20
00
78
F8
C0
F8
7C
0C
FC
F8
ENDCHAR
STARTCHAR 0162
ENCODING 354
SWIDTH 600 0
DWIDTH 9 0
BBX 9 13 0 -2
BITMAP
FF80
FF80
0C00
0C00
0C00
0C00
0C00
0C00
0C00
0C00
0C00
0400
1C00
ENDCHAR
STARTCHAR 0163
ENCODING 355
SWIDTH 400 0
DWIDTH 6 0
BBX 5 13 1 -2
BITMAP
C0
C0
C0
F8
F8
C0
C0
C0
C0
F8
78
10
70
ENDCHAR
STARTCHAR 0164
ENCODING 356
SWIDTH 600 0
DWIDTH 9 0
BBX 9 15 0 0
BITMAP
3600
1C00
0800
0000
FF80
FF80
0C00
0C00
0C00
0C00
0C00
0C00
0C00
0C00
0C00
ENDCHAR
STARTCHAR 0165
ENCODING 357
SWIDTH 400 0
DWIDTH 6 0
BBX 5 11 1 0
BITMAP
D8
D8
D0
F8
F8
C0
C0
C0
C0
F8
78
ENDCHAR
STARTCHAR 016A
ENCODING 362
SWIDTH 666 0
DWIDTH 10 0
BBX 8 13 1 0
BITMAP
3C
00
C3
C3
C3
C3
C3
C3
C3
C3
C3
FF
7E
ENDCHAR
STARTCHAR 016B
ENCODING 363
SWIDTH 600 0
DWIDTH 9 0
BBX 7 10 1 0
BITMAP
7C
00
C6
C6
C6
C6
C6
C6
FE
7E
ENDCHAR
STARTCHAR 016E
ENCODING 366
SWIDTH 666 0
DWIDTH 10 0
BBX 8 16 1 0
BITMAP
1C
34
34
1C
00
C3
C3
C3
C3
C3
C3
C3
C3
C3
FF
7E
ENDCHAR
STARTCHAR 016F
ENCODING 367
SWIDTH 600 0
DWIDTH 9 0
BBX 7 13 1 0
BITMAP
38
28
28
38
00
C6
C6
C6
C6
C6
C6
FE
7E
ENDCHAR
STARTCHAR 0170
ENCODING 368
SWIDTH 666 0
DWIDTH 10 0
BBX 8 16 1 0
BITMAP
12
1E
36
24
00
C3
C3
C3
C3
C3
C3
C3
C3
C3
FF
7E
ENDCHAR
STARTCHAR 0171
ENCODING 369
SWIDTH 600 0
DWIDTH 9 0
BBX 7 13 1 0
BITMAP
24
36
6C
48
00
C6
C6
C6
C6
C6
C6
FE
7E
ENDCHAR
STARTCHAR 0172
ENCODING 370
SWIDTH 666 0
DWIDTH 10 0
BBX 8 13 1 -2
BITMAP
C3
C3
C3
C3
C3
C3
C3
C3
C3
FF
7E
18
0E
ENDCHAR
STARTCHAR 0173
ENCODING 371
SWIDTH 600 0
DWIDTH 9 0
BBX 7 10 1 -2
BITMAP
C6
C6
C6
C6
C6
C6
FE
7E
08
0E
ENDCHAR
STARTCHAR 0178
ENCODING 376
SWIDTH 600 0
DWIDTH 9 0
BBX 9 14 0 0
BITMAP
3600
3600
0000
E180
6300
7300
3600
3E00
1C00
1C00
0C00
0C00
0C00
0C00
ENDCHAR
STARTCHAR 0179
ENCODING 377
SWIDTH 600 0
DWIDTH 9 0
BBX 7 16 1 0
BITMAP
08
1C
38
10
00
FE
FE
0E
0C
18
38
30
60
E0
FE
FE
ENDCHAR
STARTCHAR 017A
ENCODING 378
SWIDTH 533 0
DWIDTH 8 0
BBX 6 13 1 0
BITMAP
10
18
30
20
00
FC
FC
18
30
70
E0
FC
FC
ENDCHAR
STARTCHAR 017B
ENCODING 379
SWIDTH 600 0
DWIDTH 9 0
BBX 7 14 1 0
BITMAP
38
38
00
FE
FE
0E
0C
18
38
30
60
E0
FE
FE
ENDCHAR
STARTCHAR 017C
ENCODING 380
SWIDTH 533 0
DWIDTH 8 0
BBX 6 11 1 0
BITMAP
30
30
00
FC
FC
18
30
70
E0
FC
FC
ENDCHAR
STARTCHAR 017D
ENCODING 381
SWIDTH 600 0
DWIDTH 9 0
BBX 7 15 1 0
BITMAP
6C
38
10
00
FE
FE
0E
0C
18
38
30
60
E0
FE
FE
ENDCHAR
STARTCHAR 017E
ENCODING 382
SWIDTH 533 0
DWIDTH 8 0
BBX 6 12 1 0
BITMAP
48
78
20
00
FC
FC
18
30
70
E0
FC
FC
ENDCHAR
STARTCHAR 0192
ENCODING 402
SWIDTH 600 0
DWIDTH 9 0
BBX 7 13 1 -2
BITMAP
3C
3E
30
3C
3C
30
30
30
30
30
30
F0
E0
ENDCHAR
STARTCHAR 0218
ENCODING 536
SWIDTH 600 0
DWIDTH 9 0
BBX 7 15 1 -4
BITMAP
7C
FE
C0
C0
F0
FE
0E
06
06
FE
FC
00
30
30
30
ENDCHAR
STARTCHAR 0219
ENCODING 537
SWIDTH 533 0
DWIDTH 8 0
BBX 6 12 1 -4
BITMAP
78
F8
C0
F8
7C
0C
FC
F8
00
30
20
60
ENDCHAR
STARTCHAR 021A
ENCODING 538
SWIDTH 600 0
DWIDTH 9 0
BBX 9 15 0 -4
BITMAP
FF80
FF80
0C00
0C00
0C00
0C00
0C00
0C00
0C00
0C00
0C00
0000
0800
1800
1800
ENDCHAR
STARTCHAR 021B
ENCODING 539
SWIDTH 400 0
DWIDTH 6 0
BBX 5 15 1 -4
BITMAP
C0
C0
C0
F8
F8
C0
C0
C0
C0
F8
78
00
20
60
60
ENDCHAR
STARTCHAR 0237
ENCODING 567
SWIDTH 266 0
DWIDTH 4 0
BBX 3 11 0 -3
BITMAP
60
60
60
60
60
60
60
60
60
E0
C0
ENDCHAR
STARTCHAR 02C6
ENCODING 710
SWIDTH 533 0
DWIDTH 8 0
BBX 5 3 1 9
BITMAP
20
70
C8
ENDCHAR
STARTCHAR 02C7
ENCODING 711
SWIDTH 533 0
DWIDTH 8 0
BBX 5 3 1 9
BITMAP
C8
70
20
ENDCHAR
STARTCHAR 02C9
ENCODING 713
SWIDTH 533 0
DWIDTH 8 0
BBX 4 1 2 9
BITMAP
F0
ENDCHAR
STARTCHAR 02D8
ENCODING 728
SWIDTH 533 0
DWIDTH 8 0
BBX 4 3 2 9
BITMAP
90
90
F0
ENDCHAR
STARTCHAR 02D9
ENCODING 729
SWIDTH 533 0
DWIDTH 8 0
BBX 2 2 3 9
BITMAP
C0
C0
ENDCHAR
STARTCHAR 02DA
ENCODING 730
SWIDTH 533 0
DWIDTH 8 0
BBX 3 4 2 9
BITMAP
E0
A0
A0
E0
ENDCHAR
STARTCHAR 02DB
ENCODING 731
SWIDTH 533 0
DWIDTH 8 0
BBX 4 3 2 -2
BITMAP
C0
C0
F0
ENDCHAR
STARTCHAR 02DC
ENCODING 732
SWIDTH 533 0
DWIDTH 8 0
BBX 5 3 1 9
BITMAP
68
E8
90
ENDCHAR
STARTCHAR 02DD
ENCODING 733
SWIDTH 533 0
DWIDTH 8 0
BBX 6 4 1 9
BITMAP
28
6C
D8
48
ENDCHAR
STARTCHAR 0300
ENCODING 768
SWIDTH 0 0
DWIDTH 0 0
BBX 3 4 -6 9
BITMAP
80
C0
60
40
ENDCHAR
STARTCHAR 0301
ENCODING 769
SWIDTH 0 0
DWIDTH 0 0
BBX 4 4 -6 9
BITMAP
20
70
E0
40
ENDCHAR
STARTCHAR 0302
ENCODING 770
SWIDTH 0 0
DWIDTH 0 0
BBX 5 3 -7 9
BITMAP
20
70
C8
ENDCHAR
STARTCHAR 0303
ENCODING 771
SWIDTH 0 0
DWIDTH 0 0
BBX 5 3 -7 9
BITMAP
68
E8
90
ENDCHAR
STARTCHAR 0304
ENCODING 772
SWIDTH 0 0
DWIDTH 0 0
BBX 5 1 -7 9
BITMAP
F8
ENDCHAR
STARTCHAR 0306
ENCODING 774
SWIDTH 0 0
DWIDTH 0 0
BBX 4 3 -6 9
BITMAP
90
90
E0
ENDCHAR
STARTCHAR 0307
ENCODING 775
SWIDTH 0 0
DWIDTH 0 0
BBX 2 2 -5 9
BITMAP
C0
C0
ENDCHAR
STARTCHAR 0308
ENCODING 776
SWIDTH 0 0
DWIDTH 0 0
BBX 5 2 -7 9
BITMAP
D8
D8
ENDCHAR
STARTCHAR 030A
ENCODING 778
SWIDTH 0 0
DWIDTH 0 0
BBX 3 4 -6 9
BITMAP
E0
A0
A0
E0
ENDCHAR
STARTCHAR 030B
ENCODING 779
SWIDTH 0 0
DWIDTH 0 0
BBX 6 4 -7 9
BITMAP
28
6C
D8
50
ENDCHAR
STARTCHAR 030C
ENCODING 780
SWIDTH 0 0
DWIDTH 0 0
BBX 5 3 -7 9
BITMAP
C8
70
20
ENDCHAR
STARTCHAR 0326
ENCODING 806
SWIDTH 0 0
DWIDTH 0 0
BBX 3 3 -6 -4
BITMAP
60
40
C0
ENDCHAR
STARTCHAR 0327
ENCODING 807
SWIDTH 0 0
DWIDTH 0 0
BBX 3 3 -6 -2
BITMAP
20
20
E0
ENDCHAR
STARTCHAR 0328
ENCODING 808
SWIDTH 0 0
DWIDTH 0 0
BBX 3 3 -6 -2
BITMAP
C0
C0
E0
ENDCHAR
STARTCHAR 03C0
ENCODING 960
SWIDTH 600 0
DWIDTH 9 0
BBX 7 8 1 0
BITMAP
FE
FE
C6
C6
C6
C6
C6
C6
ENDCHAR
STARTCHAR 1E9E
ENCODING 7838
SWIDTH 733 0
DWIDTH 11 0
BBX 9 11 1 0
BITMAP
7F00
FF00
C600
CC00
DF00
DF80
C180
C180
C180
DF80
CF00
ENDCHAR
STARTCHAR 2013
ENCODING 8211
SWIDTH 600 0
DWIDTH 9 0
BBX 7 2 1 4
BITMAP
FE
FE
ENDCHAR
STARTCHAR 2014
ENCODING 8212
SWIDTH 1000 0
DWIDTH 15 0
BBX 13 2 1 4
BITMAP
FFF8
FFF8
ENDCHAR
STARTCHAR 2018
ENCODING 8216
SWIDTH 266 0
DWIDTH 4 0
BBX 3 5 1 6
BITMAP
60
40
C0
C0
C0
ENDCHAR
STARTCHAR 2019
ENCODING 8217
SWIDTH 266 0
DWIDTH 4 0
BBX 4 5 0 6
BITMAP
70
60
60
60
C0
ENDCHAR
STARTCHAR 201A
ENCODING 8218
SWIDTH 266 0
DWIDTH 4 0
BBX 3 5 0 -2
BITMAP
60
60
60
40
C0
ENDCHAR
STARTCHAR 201C
ENCODING 8220
SWIDTH 466 0
DWIDTH 7 0
BBX 6 5 1 6
BITMAP
6C
4C
C8
D8
D8
ENDCHAR
STARTCHAR 201D
ENCODING 8221
SWIDTH 466 0
DWIDTH 7 0
BBX 7 5 0 6
BITMAP
76
6C
6C
6C
C8
ENDCHAR
STARTCHAR 201E
ENCODING 8222
SWIDTH 466 0
DWIDTH 7 0
BBX 7 5 0 -2
BITMAP
66
6C
6C
4C
C8
ENDCHAR
STARTCHAR 2020
ENCODING 8224
SWIDTH 466 0
DWIDTH 7 0
BBX 6 13 1 -2
BITMAP
30
30
30
FC
FC
30
30
30
30
30
30
30
30
ENDCHAR
STARTCHAR 2021
ENCODING 8225
SWIDTH 466 0
DWIDTH 7 0
BBX 6 13 1 -2
BITMAP
30
30
30
FC
FC
30
30
30
FC
FC
30
30
30
ENDCHAR
STARTCHAR 2022
ENCODING 8226
SWIDTH 400 0
DWIDTH 6 0
BBX 4 4 1 4
BITMAP
F0
F0
F0
F0
ENDCHAR
STARTCHAR 2026
ENCODING 8230
SWIDTH 866 0
DWIDTH 13 0
BBX 11 3 1 0
BITMAP
CCE0
CCE0
CCE0
ENDCHAR
STARTCHAR 2030
ENCODING 8240
SWIDTH 1266 0
DWIDTH 19 0
BBX 17 11 1 0
BITMAP
F10000
B18000
B30000
B30000
B6E780
B7B480
FDB480
0DB480
19B480
19B480
30E780
ENDCHAR
STARTCHAR 2039
ENCODING 8249
SWIDTH 333 0
DWIDTH 5 0
BBX 5 7 0 1
BITMAP
18
30
60
E0
60
30
18
ENDCHAR
STARTCHAR 203A
ENCODING 8250
SWIDTH 333 0
DWIDTH 5 0
BBX 4 7 1 1
BITMAP
80
C0
60
30
60
C0
80
ENDCHAR
STARTCHAR 2044
ENCODING 8260
SWIDTH 133 0
DWIDTH 2 0
BBX 6 11 -2 0
BITMAP
04
0C
0C
18
18
30
30
60
60
C0
C0
ENDCHAR
STARTCHAR 2070
ENCODING 8304
SWIDTH 333 0
DWIDTH 5 0
BBX 4 7 1 4
BITMAP
F0
B0
B0
B0
B0
B0
F0
ENDCHAR
STARTCHAR 2074
ENCODING 8308
SWIDTH 333 0
DWIDTH 5 0
BBX 4 7 1 4
BITMAP
60
40
C0
F0
B0
F0
30
ENDCHAR
STARTCHAR 2080
ENCODING 8320
SWIDTH 333 0
DWIDTH 5 0
BBX 4 7 1 0
BITMAP
F0
B0
B0
B0
B0
B0
F0
ENDCHAR
STARTCHAR 2081
ENCODING 8321
SWIDTH 333 0
DWIDTH 5 0
BBX 4 7 1 0
BITMAP
E0
60
60
60
60
60
F0
ENDCHAR
STARTCHAR 2082
ENCODING 8322
SWIDTH 333 0
DWIDTH 5 0
BBX 4 7 1 0
BITMAP
F0
30
30
F0
80
80
F0
ENDCHAR
STARTCHAR 2083
ENCODING 8323
SWIDTH 333 0
DWIDTH 5 0
BBX 4 7 1 0
BITMAP
F0
30
30
F0
30
30
E0
ENDCHAR
STARTCHAR 2084
ENCODING 8324
SWIDTH 333 0
DWIDTH 5 0
BBX 4 7 1 0
BITMAP
60
40
C0
F0
B0
F0
30
ENDCHAR
STARTCHAR 20AC
ENCODING 8364
SWIDTH 600 0
DWIDTH 9 0
BBX 8 11 0 0
BITMAP
3F
3F
70
70
FE
70
FC
70
70
3F
3F
ENDCHAR
STARTCHAR 20BA
ENCODING 8378
SWIDTH 600 0
DWIDTH 9 0
BBX 8 11 0 0
BITMAP
30
34
3E
F0
7E
38
F3
33
33
3E
3C
ENDCHAR
STARTCHAR 20BD
ENCODING 8381
SWIDTH 600 0
DWIDTH 9 0
BBX 8 11 0 0
BITMAP
7E
7F
63
63
FF
FE
60
FC
FC
60
60
ENDCHAR
STARTCHAR 2113
ENCODING 8467
SWIDTH 333 0
DWIDTH 5 0
BBX 3 11 1 0
BITMAP
C0
C0
C0
C0
C0
C0
C0
C0
C0
E0
60
ENDCHAR
STARTCHAR 2122
ENCODING 8482
SWIDTH 800 0
DWIDTH 12 0
BBX 11 6 0 5
BITMAP
FE60
2760
27E0
27A0
27A0
2620
ENDCHAR
STARTCHAR 2126
ENCODING 8486
SWIDTH 733 0
DWIDTH 11 0
BBX 9 11 1 0
BITMAP
7F00
FF00
C380
C380
C380
C380
C380
C300
6300
F780
F780
ENDCHAR
STARTCHAR 212E
ENCODING 8494
SWIDTH 866 0
DWIDTH 13 0
BBX 11 11 1 0
BITMAP
1F00
20C0
4040
C060
C060
FFE0
C000
C000
4000
20C0
1F00
ENDCHAR
STARTCHAR 2202
ENCODING 8706
SWIDTH 600 0
DWIDTH 9 0
BBX 7 11 1 0
BITMAP
78
7C
0E
06
7E
FE
C6
C6
C6
FE
7C
ENDCHAR
STARTCHAR 2206
ENCODING 8710
SWIDTH 666 0
DWIDTH 10 0
BBX 10 11 0 0
BITMAP
1E00
1E00
1F00
3300
3300
3300
7180
6180
6180
7FC0
FFC0
ENDCHAR
STARTCHAR 220F
ENCODING 8719
SWIDTH 733 0
DWIDTH 11 0
BBX 8 13 1 -2
BITMAP
FF
FF
C3
C3
C3
C3
C3
C3
C3
C3
C3
C3
C3
ENDCHAR
STARTCHAR 2211
ENCODING 8721
SWIDTH 600 0
DWIDTH 9 0
BBX 7 13 1 -2
BITMAP
FE
FE
E0
60
70
38
18
38
70
60
E0
FE
FE
ENDCHAR
STARTCHAR 2212
ENCODING 8722
SWIDTH 600 0
DWIDTH 9 0
BBX 7 2 1 4
BITMAP
FE
FE
ENDCHAR
STARTCHAR 2215
ENCODING 8725
SWIDTH 133 0
DWIDTH 2 0
BBX 6 11 -2 0
BITMAP
04
0C
0C
18
18
30
30
60
60
C0
C0
ENDCHAR
STARTCHAR 2219
ENCODING 8729
SWIDTH 266 0
DWIDTH 4 0
BBX 2 3 1 4
BITMAP
C0
C0
C0
ENDCHAR
STARTCHAR 221A
ENCODING 8730
SWIDTH 600 0
DWIDTH 9 0
BBX 9 12 0 0
BITMAP
0180
0180
0100
0300
0300
0200
E600
3600
3400
3C00
1C00
1800
ENDCHAR
STARTCHAR 221E
ENCODING 8734
SWIDTH 600 0
DWIDTH 9 0
BBX 9 5 0 3
BITMAP
7F00
4D80
C980
4D80
7F00
ENDCHAR
STARTCHAR 222B
ENCODING 8747
SWIDTH 466 0
DWIDTH 7 0
BBX 7 14 0 -3
BITMAP
1E
1E
18
18
18
18
18
18
18
18
18
18
F8
70
ENDCHAR
STARTCHAR 2248
ENCODING 8776
SWIDTH 600 0
DWIDTH 9 0
BBX 8 8 0 1
BITMAP
32
7B
EF
4E
32
7B
EF
4E
ENDCHAR
STARTCHAR 2260
ENCODING 8800
SWIDTH 600 0
DWIDTH 9 0
BBX 7 8 1 1
BITMAP
08
0C
FE
FE
30
FE
FE
60
ENDCHAR
STARTCHAR 2264
ENCODING 8804
SWIDTH 600 0
DWIDTH 9 0
BBX 7 10 1 0
BITMAP
0E
3C
F0
C0
F0
3C
0E
00
FE
FE
ENDCHAR
STARTCHAR 2265
ENCODING 8805
SWIDTH 600 0
DWIDTH 9 0
BBX 7 10 1 0
BITMAP
C0
78
1E
06
1E
78
C0
00
FE
FE
ENDCHAR
STARTCHAR 25CA
ENCODING 9674
SWIDTH 600 0
DWIDTH 9 0
BBX 8 11 0 0
BITMAP
1C
1C
36
26
63
C3
63
26
36
1C
1C
ENDCHAR
STARTCHAR F000
ENCODING 61440
SWIDTH 733 0
DWIDTH 11 0
BBX 9 8 1 1
BITMAP
0800
1800
1C00
3C00
3E00
7E00
7F00
FF80
ENDCHAR
STARTCHAR FB01
ENCODING 64257
SWIDTH 666 0
DWIDTH 10 0
BBX 8 11 1 0
BITMAP
7B
FB
C0
FB
FB
C3
C3
C3
C3
C3
C3
ENDCHAR
STARTCHAR FB02
ENCODING 64258
SWIDTH 733 0
DWIDTH 11 0
BBX 9 11 1 0
BITMAP
7B00
FB00
C300
FB00
FB00
C300
C300
C300
C300
C380
C180
ENDCHAR
ENDFONT
